<svg id="Layer_1" data-name="Layer 1" xmlns="http://www.w3.org/2000/svg" viewBox="0 0 300 300"><defs><style>.cls-1{fill:#1b1464;}.cls-2{fill:#3ebcec;}.cls-3{fill:none;stroke:#3ebcec;stroke-linecap:round;stroke-miterlimit:10;stroke-width:20px;}</style></defs><path class="cls-1" d="M87.87,122.25H212.13a0,0,0,0,1,0,0V246.51a0,0,0,0,1,0,0H103.87a16,16,0,0,1-16-16V122.25a0,0,0,0,1,0,0Z" transform="translate(-86.44 160.07) rotate(-45)"/><circle class="cls-2" cx="237.87" cy="96.51" r="62.13"/><circle class="cls-2" cx="62.13" cy="96.51" r="62.13"/><rect class="cls-2" x="21.97" y="87.41" width="124.26" height="62.13" transform="translate(-59.15 94.17) rotate(-45)"/><rect class="cls-2" x="153.77" y="87.41" width="124.26" height="62.13" transform="translate(147.01 -117.96) rotate(45)"/><line class="cls-3" x1="111.92" y1="184.38" x2="188.08" y2="184.38"/><line class="cls-3" x1="150" y1="222.52" x2="150" y2="146.23"/></svg>